<?xml version="1.0" encoding="utf-8"?>
<!-- Generator: Adobe Illustrator 15.0.0, SVG Export Plug-In . SVG Version: 6.00 Build 0)  -->
<!DOCTYPE svg PUBLIC "-//W3C//DTD SVG 1.1//EN" "http://www.w3.org/Graphics/SVG/1.1/DTD/svg11.dtd">
<svg version="1.1" id="Vrstva_1" xmlns="http://www.w3.org/2000/svg" xmlns:xlink="http://www.w3.org/1999/xlink" x="0px" y="0px"
	 width="511.2px" height="287.46px" viewBox="0 0 511.2 287.46" enable-background="new 0 0 511.2 287.46" xml:space="preserve">
<path fill="#006B2E" d="M255.605,35.602c-92.988,0-133.011,60.347-133.011,60.347H4.113v187.398h502.973V95.949h-118.48
	c0,0-40.023-60.347-133.012-60.347H255.605z"/>
<path fill="none" stroke="#006B2E" stroke-width="0.635" stroke-miterlimit="3.864" d="M255.605,35.602
	c-92.988,0-133.011,60.347-133.011,60.347H4.113v187.398h502.973V95.949h-118.48c0,0-40.023-60.347-133.012-60.347H255.605z"/>
<path fill="#FFFFFF" d="M256.984,45.828c0,0-78.059-5.082-110.141,66.133l217.57-1.332C332.02,40.746,256.984,45.828,256.984,45.828
	"/>
<path fill="#FFFDD9" d="M147.215,111.172c9.824-35.246,54.89-65.738,108.41-65.891c53.527,0.149,98.742,30.645,108.57,65.891
	h127.109V267.07H19.812l0.282-155.898h127.113"/>
<path fill-rule="evenodd" clip-rule="evenodd" fill="#CFA345" d="M39.957,214.977h34.051v-2.926
	c-7.035-1.055-8.969-1.289-8.969-10.781v-17.145c26.152-0.195,39.106-4.121,39.594-24.73c0.512-21.457-19.235-24.21-31.848-23.622
	H39.957v2.93c5.406,0.586,8.563,0.938,8.563,10.776v51.79c0,6.563-1.426,8.085-2.649,9.141c-0.715,0.586-0.918,0.703-5.914,1.641
	V214.977 M64.625,144.801c0.133-3.27,2.09-4.512,7.687-4.512c9.719,0,15.071,5.355,14.821,19.23
	c-0.262,14.527-9.945,20.285-22.524,19.5L64.625,144.801z"/>
<path fill-rule="evenodd" clip-rule="evenodd" fill="#CFA345" d="M141.254,144.031c-17.973,0-32.965,13.895-32.965,35.989
	c0,21.292,13.875,35.992,32.965,35.992s32.965-14.7,32.965-35.992C174.219,157.922,159.227,144.031,141.254,144.031
	 M141.254,148.578c13.035,0,16.484,16.645,16.484,31.441c0,8.824-0.562,31.445-16.484,31.445c-15.926,0-16.484-22.621-16.484-31.445
	C124.77,165.219,128.215,148.578,141.254,148.578z"/>
<path fill-rule="evenodd" clip-rule="evenodd" fill="#CFA345" d="M322.387,189.25l8.566-23.945l8.09,23.945H322.387 M366.836,212.34
	c-4.375,0.207-5.832-3.316-9.934-14.402l-20.32-54.488l-1.316-3.773h-3.648l-17.82,60.543c-2.734,7.77-4.008,11.289-8.93,12.121
	v2.59h18.5v-2.59c-3.098-0.207-6.359-0.52-6.359-4.457c0-1.656,1.457-4.676,4.012-12.133h19.391
	c1.273,3.312,4.191,9.75,4.191,12.547c0,3.418-1.641,3.523-7.293,4.043v2.59h29.527V212.34z"/>
<path fill="#CFA345" d="M179.574,214.871h19.434v-2.539c-6.336-0.813-8.133-2.738-8.133-10.043v-40.578h0.172l39.148,53.215h3.442
	v-57.98c0-4.871-0.532-7.203,5.633-8.117v-2.535h-18.407v2.535c6.934,0.609,7.961,3.957,7.961,10.043v30.168h-0.172l-30.754-42.746
	h-20.16v2.535c6.594,0.082,8.321,7.305,8.321,7.305v48.086c0,6.695-1.348,7.406-6.485,8.113V214.871"/>
<path fill="#CFA345" d="M245.645,214.871h19.437v-2.539c-6.336-0.813-8.137-2.738-8.137-10.043v-40.578h0.172l39.148,53.215h3.445
	v-57.98c0-4.871-0.535-7.203,5.629-8.117v-2.535h-18.406v2.535c6.934,0.609,7.961,3.957,7.961,10.043v30.168h-0.172l-30.754-42.746
	h-20.16v2.535c6.593,0.082,8.324,7.305,8.324,7.305v48.086c0,6.695-1.352,7.406-6.488,8.113V214.871"/>
<path fill="#CFA345" d="M399.855,212.391c-6.008-0.508-7.957-0.707-7.957-9.332v-52.258c5.602,0.406,10.379-0.289,12.004,15.941
	h4.773l-0.039-20.391h-49.172l0.082,20.391h4.57c1.625-16.23,8.941-15.535,14.625-15.941v52.258c0,8.523-1.949,8.727-7.875,9.332
	v2.539h28.988V212.391"/>
<path fill="#CFA345" d="M476.613,212.391c-4.441-0.707-7.379-1.113-7.379-7.203V156.09c0-6.594,3.773-6.898,7.379-7.203v-2.535
	h-28.508v2.535c3.688,0.305,7.547,0.508,7.547,7.203v19.797h-22.305V156.09c0-6.695,3.859-6.898,7.547-7.203v-2.535h-28.258v2.535
	c3.523,0.406,7.125,0.609,7.125,7.203v49.098c0,5.988-2.68,6.496-7.125,7.203v2.539h28.258v-2.539
	c-4.445-0.605-7.547-1.012-7.547-7.203v-23.333h22.305v23.333c0,6.191-3.105,6.598-7.547,7.203v2.539h28.508V212.391"/>
<path fill="#CFA345" d="M181.383,134.719c16.035,3.125,38.75-3.715,50.672-6.907c11.883-3.644,48.32-12.832,48.32-12.832
	c15.68-4.437,31.59-6.73,40.105-6.515c11.949,0.297,16.82,2.98,16.82,2.98s-9.152-2.343-16.395-1.918
	c-4.973,0.078-12.891,1.235-18.672,2.442c-29.594,6.176-67.343,17.785-83.313,21.406
	C189.035,140.148,181.383,134.719,181.383,134.719"/>
<path fill-rule="evenodd" clip-rule="evenodd" fill="#8F233F" d="M137.605,144.031c-17.972,0-32.964,13.895-32.964,35.989
	c0,21.292,13.875,35.992,32.964,35.992c19.09,0,32.965-14.7,32.965-35.992C170.57,157.922,155.578,144.031,137.605,144.031
	 M137.605,148.578c13.036,0,16.481,16.645,16.481,31.441c0,8.824-0.559,31.445-16.481,31.445c-15.925,0-16.484-22.621-16.484-31.445
	C121.121,165.219,124.566,148.578,137.605,148.578z"/>
<path fill-rule="evenodd" clip-rule="evenodd" fill="#8F233F" d="M318.734,189.25l8.566-23.941l8.09,23.941H318.734 M363.184,212.34
	c-4.375,0.207-5.832-3.316-9.934-14.402l-20.32-54.488l-1.313-3.769l-1.238,3.769l-20.234,56.77
	c-2.73,7.77-4.008,11.289-8.93,12.121v2.59h18.5v-2.59c-3.098-0.207-6.359-0.52-6.359-4.457c0-1.656,1.457-4.676,4.012-12.133
	h19.391c1.273,3.312,4.191,9.75,4.191,12.547c0,3.418-1.641,3.523-7.289,4.043v2.59h29.523V212.34z"/>
<path fill="#8F233F" d="M175.926,214.871h19.437v-2.539c-6.336-0.813-8.136-2.738-8.136-10.043v-40.578h0.171l39.149,53.215h3.445
	v-57.98c0-4.871-0.535-7.203,5.629-8.117v-2.535h-18.406v2.535c6.933,0.609,7.961,3.957,7.961,10.043v30.168h-0.172l-30.754-42.746
	h-20.16v2.535c6.594,0.082,8.324,7.305,8.324,7.305v48.086c0,6.695-1.352,7.406-6.488,8.113V214.871"/>
<path fill="#8F233F" d="M241.992,214.871h19.438v-2.539c-6.336-0.813-8.133-2.738-8.133-10.043v-40.578h0.172l39.145,53.215h3.441
	v-57.98c0-4.871-0.531-7.203,5.633-8.117v-2.535h-18.402v2.535c6.934,0.609,7.961,3.957,7.961,10.043v30.168h-0.172l-30.762-42.746
	H240.16v2.535c6.594,0.082,8.324,7.305,8.324,7.305v48.086c0,6.695-1.351,7.406-6.488,8.113v2.539"/>
<path fill="#8F233F" d="M396.203,212.391c-6.008-0.508-7.957-0.711-7.957-9.332v-52.258c5.602,0.406,12.922-0.289,14.543,15.941
	h2.23l0.043-20.391h-46.711l0.082,20.391h2.031c1.625-16.23,8.941-15.535,14.625-15.941v52.258c0,8.52-1.949,8.723-7.879,9.332
	v2.535h28.992V212.391"/>
<path fill="#8F233F" d="M472.965,212.391c-4.445-0.711-7.379-1.117-7.379-7.203V156.09c0-6.594,3.773-6.898,7.379-7.203v-2.535
	h-28.508v2.535c3.688,0.305,7.543,0.508,7.543,7.203v19.797h-22.301V156.09c0-6.695,3.855-6.898,7.547-7.203v-2.535h-28.258v2.535
	c3.52,0.406,7.125,0.609,7.125,7.203v49.098c0,5.988-2.684,6.492-7.125,7.203v2.535h28.258v-2.535
	c-4.445-0.609-7.547-1.016-7.547-7.203v-23.333H452v23.333c0,6.188-3.102,6.594-7.543,7.203v2.535h28.508V212.391"/>
<path fill-rule="evenodd" clip-rule="evenodd" fill="#8F233F" d="M36.664,214.977h33.691v-2.926
	c-7.035-1.055-8.972-1.289-8.972-10.781v-17.145c26.156-0.195,39.109-4.121,39.597-24.73c0.512-21.457-19.234-24.21-31.847-23.622
	H36.664v2.93c5.402,0.586,8.563,0.938,8.563,10.776v51.79c0,6.563-1.426,8.085-2.649,9.141c-0.715,0.586-0.918,0.703-5.914,1.641
	V214.977 M60.973,144.801c0.129-3.27,2.089-4.512,7.687-4.512c9.715,0,15.07,5.355,14.82,19.23
	c-0.261,14.527-9.945,20.285-22.523,19.5L60.973,144.801z"/>
<path fill="#8F233F" d="M473.625,118.203c-5.563,0-10.07,4.508-10.07,10.067c0,5.562,4.508,10.07,10.07,10.07
	s10.07-4.508,10.07-10.07C483.695,122.711,479.188,118.203,473.625,118.203 M473.625,117.301c6.059,0,10.969,4.91,10.969,10.969
	c0,6.062-4.91,10.972-10.969,10.972s-10.969-4.91-10.969-10.972C462.656,122.211,467.566,117.301,473.625,117.301z"/>
<path fill-rule="evenodd" clip-rule="evenodd" fill="#8F233F" d="M469.543,134.133h1.859v-4.746h2.73
	c1.711,0,2.109,0.938,2.109,3.051c0,0.566,0,1.195,0.285,1.695h1.988c-0.398-0.469-0.578-1.695-0.578-3.035
	c0-1.825-0.938-2.344-1.574-2.438v-0.035c0.34-0.129,1.754-0.691,1.754-2.906c0-1.953-1.191-3.117-3.508-3.117h-5.066V134.133
	 M471.402,124.25h3.016c0.965,0,1.84,0.293,1.84,1.762c0,1.211-0.637,1.84-1.813,1.84h-3.043V124.25z"/>
<path fill-rule="evenodd" clip-rule="evenodd" fill="#CFA345" d="M176.824,89.172c-4.422,0.012-21.668,9.043-20.066,23.961
	c2.234,20.762,33.781,21.789,44.707,19.801c11.699-2.129,65.059-17.11,78.543-20.075c41.461-10.199,54.496-5.64,62.727-2.226
	c12.047,5,11.402,17.726-19.617,20.429c-16.258,1.415-30.191-2.906-31.648-3.425c0,0,6.855,3.23,20.473,5.34
	c22.672,3.515,42.313-2.461,45.668-8.942c6.438-12.433-12.488-21.914-38.695-21.164c-7.445,0.215-27.586-0.629-104.68,19.207
	c-22.214,5.524-54.519,8.774-53.644-15.008c0.441-12.113,16.23-17.898,16.23-17.898"/>
<path fill-rule="evenodd" clip-rule="evenodd" fill="#006B2E" d="M207.426,229.781c2.219-1.984,4.273-3.242,6.894-4.168
	l-0.625-2.898c-2.257,0.602-4.332,1.57-6.336,2.91c-0.179-0.047-0.363-0.184-0.543-0.324c-1.82-1.246-3.75-1.938-5.718-2.586
	l-0.649,2.898c2.547,1.109,4.715,2.145,6.899,4.129L207.426,229.781 M462.395,255.668v0.684c1.297-0.074,2.594-0.18,3.891-0.18
	h1.223c1.512,0,3.027,0.145,4.535,0.215v-0.719c-1.617-0.434-1.941-0.789-1.941-2.445V235c0-1.727,0-2.66,1.941-3.059v-0.719
	c-1.078,0.074-2.16,0.18-3.238,0.18h-2.27c-1.367,0-2.734-0.035-4.102-0.141v0.754c1.582,0.105,2.016,0.898,2.016,2.406l0.035,19.34
	c0,1.402-0.934,1.617-2.051,1.906H462.395z M427.707,255.594v0.723c1.477-0.109,2.953-0.215,4.43-0.215
	c1.836,0,3.633,0.105,5.434,0.25l-0.035-0.828c-1.621,0-2.27-0.828-2.27-2.41v-18.617h2.883c2.914,0,5.977,1.008,5.977,4.457
	c0,3.918-3.457,4.781-6.699,4.996c-0.285,0.035-0.539,0.07-0.789,0.18l-0.254,0.254c0.039,0.324,0.18,0.574,0.324,0.824
	c1.406,2.23,3.168,4.242,4.57,6.508c0.902,1.508,1.91,2.98,2.773,4.531c1.332-0.039,2.664-0.074,3.996-0.074
	c1.262,0.035,2.559,0.074,3.852,0.145l0.035-0.723c-1.043-0.32-2.012-0.754-2.664-1.688l-6.117-8.845
	c3.492-0.823,6.621-3.269,6.621-7.151c0-5.699-4.859-6.863-9.574-6.863l-12.422,0.035v0.766c1.117,0.07,1.945,0.578,1.945,1.813
	v19.348C429.723,254.66,429.363,255.273,427.707,255.594z M395.164,231.121c-0.109,2.539-0.18,5.102-0.359,7.652h0.719
	c0.289-1.902,1.008-4.238,3.348-4.238h4.066v17.319c0,2.231-0.25,3.239-2.664,3.669v0.793c1.656-0.07,3.316-0.18,4.969-0.18
	c2.016,0,4.031,0.109,6.051,0.18l0.035-0.758c-1.441-0.215-2.664-0.539-2.664-2.262l-0.035-18.836h3.238
	c3.238,0,3.746,1.438,4.141,4.313h0.828c-0.289-2.551-0.359-5.113-0.434-7.691L395.164,231.121z M382.707,238.82
	c-0.289-2.379-0.395-4.754-0.465-7.129c-2.27-0.648-4.609-1.152-6.988-1.152c-4.57,0-11.555,1.621-11.555,7.344
	c0,10.047,14.832,6.48,14.832,12.203c0,2.918-3.527,3.676-5.832,3.676c-3.742,0.035-7.273-2.055-7.773-6.051h-0.828
	c0.215,2.629,0.32,5.293,0.395,7.957c2.629,0.793,5.363,1.332,8.102,1.332c5.688,0,11.59-1.871,11.59-8.566
	c-0.035-8.895-15.012-5.762-15.012-11.563c0-2.41,3.563-3.06,5.363-3.06c3.602,0,6.375,1.403,7.453,4.97L382.707,238.82z
	 M342.699,255.668v0.684c1.297-0.074,2.594-0.18,3.891-0.18h1.223c1.512,0,3.023,0.145,4.535,0.215v-0.719
	c-1.621-0.434-1.945-0.789-1.945-2.445V235c0-1.727,0-2.66,1.945-3.059v-0.719c-1.078,0.074-2.16,0.18-3.238,0.18h-2.27
	c-1.367,0-2.734-0.035-4.105-0.141v0.754c1.586,0.105,2.02,0.898,2.02,2.406l0.035,19.34c0,1.402-0.938,1.617-2.055,1.906H342.699z
	 M298.688,255.633v0.613c1.332-0.109,2.664-0.185,3.996-0.185s2.668,0,3.996,0.146v-0.574c-1.008-0.145-2.336-0.613-2.336-1.836
	c0-5.797,0.5-11.594,0.609-17.426c0.793,2.305,1.586,4.645,2.375,6.983c1.551,4.321,3.387,8.532,4.934,12.853h3.168
	c2.34-6.621,4.789-13.211,7.055-19.836c0.219,3.961,0.145,7.957,0.434,11.918c0.145,1.621,0.434,3.203,0.434,4.82
	c0,1.66-0.973,2.234-2.449,2.414l-0.035,0.723c1.797-0.185,3.598-0.219,5.398-0.219c1.586,0,3.168,0.074,4.75,0.145v-0.578
	c-2.301-0.215-2.121-1.871-2.23-3.668l-1.117-16.742c-0.035-0.539-0.035-1.082-0.035-1.622c0-1.292,0.539-1.582,1.691-1.905
	l-0.035-0.648c-1.188,0.07-2.375,0.215-3.563,0.215c-1.512,0-3.023-0.07-4.539-0.215c-2.121,5.941-4.211,11.918-6.336,17.855
	c-0.969-3.348-2.41-6.552-3.672-9.828c-0.969-2.625-1.906-5.289-2.914-7.918c-1.406,0.07-2.809,0.105-4.211,0.105
	c-1.332,0-2.629-0.035-3.926-0.105l-0.035,0.609c1.188,0.109,1.871,0.793,1.871,1.98c0,0.434,0,0.863-0.035,1.297l-1.078,17.711
	c-0.109,1.836-0.363,2.34-2.164,2.879V255.633z M259.262,255.668v0.684c1.293-0.074,2.59-0.18,3.887-0.18h1.223
	c1.512,0,3.023,0.145,4.539,0.215v-0.719c-1.621-0.434-1.945-0.789-1.945-2.445V235c0-1.727,0-2.66,1.945-3.059v-0.719
	c-1.082,0.074-2.16,0.18-3.242,0.18h-2.27c-1.367,0-2.734-0.035-4.102-0.141v0.754c1.582,0.105,2.016,0.898,2.016,2.406l0.035,19.34
	c0,1.402-0.934,1.617-2.051,1.906H259.262z M226.066,231.121c-0.105,2.539-0.179,5.102-0.359,7.652h0.723
	c0.285-1.902,1.008-4.238,3.347-4.238h4.067v17.319c0,2.231-0.25,3.239-2.664,3.669v0.793c1.656-0.07,3.312-0.18,4.968-0.18
	c2.016,0,4.032,0.109,6.047,0.18l0.035-0.758c-1.437-0.215-2.664-0.539-2.664-2.262l-0.035-18.836h3.242
	c3.239,0,3.743,1.438,4.141,4.313h0.828c-0.289-2.551-0.363-5.113-0.433-7.691L226.066,231.121z M215.008,232.016
	c-2.266-0.754-4.57-1.477-6.985-1.477c-8.097,0-13.785,5.723-13.785,13.789c0,7.559,5.797,12.637,13.176,12.637
	c2.879,0,4.859-0.903,7.414-2.016l0.649-4.18c-1.836,1.297-4.032,2.34-6.336,2.34c-5.543,0-9.071-4.965-9.071-10.148
	c-0.035-4.574,2.7-9,7.703-9c3.059-0.035,6.122,2.195,6.301,5.398h0.754C214.828,236.914,214.758,234.465,215.008,232.016z
	 M172.879,255.668v0.684c1.293-0.074,2.59-0.18,3.887-0.18h1.222c1.512,0,3.028,0.145,4.535,0.215v-0.719
	c-1.617-0.434-1.941-0.789-1.941-2.445v-18.227c0-1.727,0-2.66,1.941-3.059v-0.719c-1.078,0.074-2.156,0.18-3.238,0.18h-2.269
	c-1.368,0-2.735-0.031-4.102-0.141v0.754c1.586,0.105,2.016,0.898,2.016,2.406l0.035,19.344c0,1.402-0.934,1.617-2.051,1.906
	H172.879z M135.105,255.633v0.645c1.192-0.031,2.379-0.07,3.567-0.07c1.512,0,3.058,0.039,4.605,0.109l-0.035-0.723
	c-2.121-0.215-2.519-0.934-2.59-2.98c-0.035-1.797-0.035-3.634-0.035-5.43c-0.039-3.809-0.074-7.622-0.183-11.434
	c1.55,2.84,3.531,5.426,5.367,8.086c2.844,4.207,5.722,8.379,8.637,12.551h4.32v-20.992c0-1.656-0.106-3.129,1.945-3.418v-0.754
	c-1.262,0.109-2.519,0.18-3.781,0.18c-1.402,0-2.805-0.035-4.211-0.18v0.719c1.945,0.254,2.305,0.754,2.375,2.66
	c0.109,1.582,0.109,3.199,0.144,4.781c0.075,3.199,0.145,6.398,0.29,9.597c-3.747-6.038-7.922-11.858-11.954-17.757
	c-1.187,0-2.339,0.18-3.527,0.18c-1.621,0-3.238-0.035-4.859-0.18l-0.035,0.719c1.835,0.031,1.98,1.074,1.98,2.625v18.148
	c0,1.582-0.184,2.699-2.02,2.875V255.633z M115.309,234.645c-1.911,3.559-4.25,6.898-6.375,10.348l-6.911,11.254h21.782
	c0.07-2.344,0.25-4.68,0.609-6.98h-0.863c-0.613,2.839-1.403,3.559-4.356,3.559h-8.531c4.32-7.258,8.781-14.445,13.242-21.637
	l-19.547,0.035c-0.035,2.089-0.285,4.176-0.539,6.257l0.719-0.034c0.469-2.227,1.297-2.836,3.527-2.836L115.309,234.645z
	 M70.91,255.738v0.688h20.559l0.648-7.418h-0.648c-0.504,2.449-1.153,3.961-3.922,3.961h-9.074v-8.281h5.652
	c1.547,0,2.125,0.684,2.484,2.124h0.575c-0.071-1.042-0.106-2.089-0.106-3.132c0.035-1.402,0.07-2.801,0.141-4.191h-0.61
	c-0.289,1.355-0.718,2.031-2.195,2.031l-5.941-0.035v-6.844h9.179c2.196,0,2.594,0.996,2.953,2.921l0.719-0.034l-0.215-6.301H70.914
	v0.691c1.043,0.18,1.981,0.508,1.981,1.742l-0.04,20.027c0,1.477-0.683,1.766-1.941,2.051H70.91z M36.766,255.594v0.723
	c1.476-0.109,2.949-0.215,4.425-0.215c1.836,0,3.637,0.105,5.438,0.25l-0.039-0.828c-1.617,0-2.266-0.828-2.266-2.41v-18.617h2.879
	c2.918,0,5.977,1.008,5.977,4.457c0,3.918-3.457,4.781-6.696,4.996c-0.289,0.035-0.539,0.07-0.793,0.18l-0.25,0.254
	c0.036,0.324,0.18,0.574,0.325,0.824c1.402,2.23,3.168,4.242,4.57,6.508c0.898,1.508,1.906,2.98,2.769,4.531
	c1.336-0.039,2.668-0.074,4-0.074c1.258,0.035,2.555,0.074,3.852,0.145l0.035-0.723c-1.047-0.32-2.015-0.754-2.664-1.688
	l-6.121-8.845c3.492-0.823,6.625-3.269,6.625-7.151c0-5.699-4.859-6.863-9.574-6.863l-12.422,0.035v0.766
	c1.117,0.07,1.945,0.578,1.945,1.813v19.348C38.781,254.66,38.422,255.273,36.766,255.594z M268.883,223.258
	c-2.055,1.977-6.516,3.492-9.363,3.563l0.828,2.409c0.578,0.036,1.117,0.075,1.656,0.075c3.711,0,6.266-1.223,9.18-3.348
	L268.883,223.258z M46.883,229.898c2.222-1.984,4.273-3.246,6.894-4.169l-0.621-2.897c-2.261,0.602-4.336,1.57-6.336,2.91
	c-0.183-0.047-0.363-0.184-0.547-0.324c-1.82-1.246-3.75-1.938-5.714-2.586l-0.653,2.897c2.547,1.11,4.715,2.146,6.899,4.13
	L46.883,229.898z M437.273,230.281c2.219-1.984,4.27-3.246,6.891-4.168l-0.621-2.898c-2.258,0.597-4.332,1.57-6.336,2.91
	c-0.18-0.047-0.363-0.188-0.543-0.324c-1.82-1.246-3.75-1.941-5.719-2.586l-0.652,2.898c2.551,1.105,4.715,2.145,6.902,4.129
	L437.273,230.281z"/>
<path fill-rule="evenodd" clip-rule="evenodd" fill="#CFA345" d="M255.633,41.348c52.395,0,97.43,27.472,112.91,65.422h127.852
	v165.488H15.023V106.77l127.692,0.007C158.203,68.828,203.242,41.348,255.633,41.348z M147.223,111.852
	c11.215-35.407,54.886-65.743,108.41-65.887c53.527,0.144,97.191,30.476,108.57,65.887h127.109V267.18H20.105V111.852H147.223z"/>
<path fill="none" stroke="#CFA345" stroke-width="0.635" stroke-miterlimit="3.864" d="M255.633,41.348
	c52.395,0,97.43,27.472,112.91,65.422h127.852v165.488H15.023V106.77l127.692,0.007C158.203,68.828,203.242,41.348,255.633,41.348z
	 M147.223,111.852c11.215-35.407,54.886-65.743,108.41-65.887c53.527,0.144,97.191,30.476,108.57,65.887h127.109V267.18H20.105
	V111.852H147.223z"/>
<path fill-rule="evenodd" clip-rule="evenodd" fill="#FFFDD9" d="M262.727,104.852l0.594,0.378c0.004,0.258,0.012,0.508,0.027,0.75
	c-0.051-0.187-0.121-0.367-0.211-0.546C263.023,105.207,262.883,105.016,262.727,104.852 M190.117,80.426
	c-0.5,0.465-1.015,0.957-1.57,1.39c-0.27,0.215-0.66,0.403-1.074,0.598l-0.215,0.106C188.141,81.754,189.098,81.059,190.117,80.426z
	 M263.57,107.676l0.031,0.179c0.09,0.485,0.188,0.961,0.277,1.446c-0.176-0.395-0.246-0.828-0.285-1.293L263.57,107.676z
	 M276.148,93.527l-0.449-0.105c-0.48-1.043-0.98-2.09-1.523-3.113c-0.844-1.582-1.75-3.293-2.715-4.899
	c-0.969-1.605-2-3.113-3.09-4.281c-1.008-1.082-3.578-3.453-5.789-2.965c-1.332,0.297-2.086,2.063-2.547,3.887
	c-0.477,1.879-0.691,4.051-0.793,5.488c-0.316,4.332-0.02,12.172,1.223,15.016c0.273,0.625,0.664,1.09,1.109,1.472
	c-0.164-0.097-0.332-0.191-0.492-0.297c-0.23-0.152-0.445-0.316-0.629-0.519c-0.883-0.981-1.391-2.086-1.773-3.34
	c-0.391-1.273-0.648-2.68-1.043-4.219l-0.203-0.207c-1.41-0.363-2.773-0.383-4.109-0.242c-1.32,0.141-2.625,0.438-3.941,0.719
	l-0.199,0.168c-1.211,2.844-2.254,4.902-6.266,5.594c-3.746,0.64-9.934,0.992-15.086,1.195c-4.027,0.156-7.309,0.047-9.59-1.344
	c-0.144-0.449-0.254-0.93-0.383-1.394c-0.14-0.504-0.308-1.016-0.574-1.446c-2.535-1.218-6.281-1.297-9.187-0.609l-0.2,0.047
	l-0.015,0.203c-0.496,5.738-1.91,10.426-5.629,12.746c-0.324,0.574-0.449,1.102-0.539,1.641c-0.09,0.535-0.149,1.101-0.223,1.648
	l-0.051,0.348l0.036-0.531c0.074-1.067,0.152-2.047,0.464-2.75c0.207-0.458,0.618-0.79,1.11-1.184
	c0.469-0.379,1.008-0.816,1.293-1.457c0.148-0.336,0.215-0.813,0.273-1.274c0.059-0.464,0.11-0.964,0.223-1.414
	c2.426-9.757-1.43-20.929-7.059-25.488c-1.199-0.973-2.922-2.273-4.269-2.223c-0.805,0.028-1.524,0.442-2.207,0.977l0.183-0.5
	c0.098-0.27,0.196-0.508,0.321-0.707c0.535-0.328,1.164-0.574,1.839-0.801c0.707-0.234,1.446-0.441,2.141-0.687
	c1.348-0.477,2.641-1.141,3.219-2.539c1.398-0.196,2.297-0.891,3.137-1.555c0.214-0.168,0.429-0.34,0.648-0.508
	c0.219-0.16,0.437-0.312,0.676-0.449c0.465-0.277,0.984-0.488,1.617-0.586c0.398-0.188,0.676-0.375,0.934-0.57
	c0.253-0.192,0.496-0.399,0.738-0.602c0.476-0.402,0.933-0.769,1.515-1.008l0.161-0.179c0.191-0.633,0.472-1.172,0.796-1.68
	c0.336-0.516,0.711-0.988,1.079-1.473c0.746-0.984,1.484-2.051,1.734-3.605c0.012-0.203,0.078-0.289,0.176-0.352
	c0.117-0.078,0.293-0.125,0.527-0.183l0.348-0.086c0.117-0.035,0.242-0.078,0.355-0.137c0.242-0.125,0.453-0.336,0.516-0.68
	c0.148-0.945-0.051-1.937-0.297-2.91c-0.242-0.957-0.551-1.941-0.664-2.93c-0.117-0.296-0.25-0.484-0.399-0.66
	c-0.14-0.168-0.304-0.332-0.472-0.508c-0.324-0.335-0.633-0.668-0.832-1.082c-0.11-0.226-0.16-0.519-0.215-0.898
	c-0.055-0.387-0.113-0.805-0.254-1.227c-0.254-0.773-0.656-1.578-1.008-2.335c-0.355-0.758-0.621-1.411-0.656-1.918
	c-0.02-0.254,0.07-0.54,0.195-0.911c0.063-0.187,0.129-0.379,0.18-0.574c0.055-0.207,0.094-0.422,0.105-0.64
	c0.02-0.493-0.117-0.993-0.242-1.438c-0.058-0.219-0.121-0.434-0.168-0.648c-0.047-0.204-0.074-0.391-0.07-0.563
	c0.004-0.215,0.078-0.434,0.187-0.707c0.059-0.141,0.118-0.285,0.165-0.434c0.054-0.16,0.101-0.328,0.125-0.503
	c0.246-1.77,0.046-3.653-0.168-5.434c-0.106-0.887-0.219-1.762-0.289-2.59c-0.067-0.816-0.094-1.594-0.02-2.308
	c0.02-0.227,0.125-0.418,0.281-0.684c0.082-0.133,0.164-0.274,0.239-0.426c0.078-0.16,0.148-0.336,0.195-0.535
	c0.097-0.449,0.113-0.969,0.109-1.484c-0.004-0.508-0.027-1.039-0.008-1.536c0.043-1.011,0.254-1.64,0.895-1.812
	c0.906-0.242,2.059-2.867,2.324-4.09c0.777-0.121,1.192-0.656,1.508-1.215c0.164-0.293,0.316-0.617,0.492-0.929
	c0.172-0.297,0.356-0.571,0.594-0.789l0.379-0.223l0.926-0.551c0.703-0.418,1.386-0.812,1.484-0.851
	c0.387-0.153,0.84-0.2,1.375-0.243c0.543-0.047,1.125-0.082,1.711-0.226c0.953-0.231,1.84-0.633,2.613-0.977
	c0.789-0.359,1.422-0.64,1.91-0.695c0.496-0.059,1.032,0.027,1.664,0.152c0.641,0.125,1.344,0.278,2.129,0.328
	c1.098,0.067,2.266,0,3.391-0.054c1.121-0.051,2.172-0.082,3.062,0.05c0.196,0.032,0.411,0.145,0.7,0.301
	c0.144,0.082,0.293,0.16,0.445,0.231c0.164,0.078,0.336,0.144,0.512,0.187c0.629,0.145,1.316,0.137,1.91,0.129
	c0.621-0.008,1.105-0.012,1.422,0.102c0.519,0.183,1.019,0.609,1.535,1.117c0.254,0.254,0.504,0.519,0.75,0.769
	c0.246,0.254,0.5,0.5,0.75,0.704c1.152,0.941,2.156,1.71,3.347,2.171c0.708,1.2,1.258,2.555,1.907,3.813
	c0.652,1.254,1.414,2.449,2.551,3.297c-0.024,0.664,0.21,1.242,0.519,1.761c0.324,0.543,0.746,1.051,1.086,1.586
	c0.633,0.981,0.969,1.989-0.328,3.532l-0.067,0.191c0.036,0.91-0.058,1.824-0.191,2.727c-0.133,0.918-0.309,1.82-0.426,2.691
	c-0.238,1.695-0.297,3.344,0.598,4.707c-0.125,0.516-0.277,1.012-0.406,1.516c-0.145,0.566-0.266,1.144-0.293,1.777
	c-0.039,0.859,0.101,1.727,0.234,2.563c0.07,0.414,0.137,0.832,0.184,1.25c0.047,0.41,0.074,0.82,0.062,1.23
	c-0.039,1.059-0.437,2.258-0.91,3.57c-0.234,0.657-0.484,1.325-0.703,2.004c-0.223,0.684-0.418,1.375-0.543,2.063
	c-0.098,0.543-0.098,1.117-0.102,1.672c-0.007,0.543-0.019,1.023-0.132,1.421c-0.11,0.379-0.383,0.817-0.719,1.309
	c-0.168,0.246-0.34,0.496-0.504,0.75c-0.164,0.258-0.32,0.52-0.441,0.781c-0.536,1.133-0.899,2.211-1.336,3.184
	c-0.426,0.953-0.918,1.785-1.715,2.48l-0.41,0.364l0.531,0.125c2.113,0.511,4.113,1.148,5.969,1.914
	c0.39,0.117,0.734,0.015,1.015-0.172c0.137-0.094,0.262-0.207,0.383-0.324c0.113-0.114,0.23-0.243,0.348-0.375
	c0.472-0.532,0.894-0.993,1.492-1.036l0.172-0.011c0.234-0.555,0.457-0.895,0.703-1.235c0.234-0.316,0.48-0.621,0.711-0.937
	c1.047-0.215,1.844-0.684,2.523-1.254c0.348-0.297,0.664-0.621,0.965-0.949c0.281-0.309,0.555-0.625,0.836-0.938
	c0.094-0.039,0.211-0.066,0.344-0.093c0.164-0.028,0.34-0.051,0.512-0.075c0.34-0.043,0.754-0.105,1.055-0.316
	c1.379-1.906,3.016-3.43,4.813-4.809l0.234-0.179l-0.191-0.227c-0.848-1.008-1.699-1.793-2.422-2.715
	c-0.703-0.894-1.277-1.914-1.598-3.402c-0.082-0.383-0.332-0.734-0.535-1.012c-0.102-0.14-0.203-0.273-0.285-0.398
	c-0.082-0.121-0.125-0.211-0.141-0.282c-0.375-1.492-0.492-3.57-0.715-5.011c-0.184-1.188-0.172-2.762-0.238-4.051
	c-0.063-1.238,0.055-2.383-0.02-3.398c-0.074-1.016-0.34-1.95-1.172-2.711c0.082-1.778-0.391-3.012-0.883-4.176
	c-0.246-0.582-0.5-1.156-0.699-1.785c-0.191-0.621-0.332-1.301-0.348-2.094c-0.047-0.508-0.383-0.754-0.66-0.91
	c-0.121-0.071-0.25-0.133-0.367-0.207c-0.078-0.051-0.133-0.102-0.172-0.153c-0.117-4.23,0.734-7.386,3.004-9.043l0.117-1.988
	c0.293-0.187,0.535-0.418,0.746-0.66c0.234-0.277,0.445-0.578,0.66-0.871c0.422-0.57,0.832-1.043,1.508-1.238l0.258-0.075
	l-0.059-0.261c-0.262-1.168,0.328-1.871,1.164-2.621l0.648-0.567c0.223-0.199,0.438-0.402,0.641-0.617
	c0.371-0.398,0.691-0.859,0.863-1.426c0.543-0.168,1.051-0.394,1.531-0.652c0.52-0.277,1.016-0.594,1.512-0.906
	c0.984-0.625,1.93-1.215,3.035-1.512c0.457-0.125,0.934-0.184,1.426-0.219c0.508-0.035,1.031-0.043,1.574-0.058
	c1.078-0.028,2.242-0.082,3.449-0.434h1.273c0.57,0.586,1.363,0.648,2.152,0.633c0.418-0.008,0.863-0.035,1.332-0.039
	c0.445-0.004,0.914,0.019,1.383,0.117c0.367,0.078,0.754,0.293,1.203,0.543c0.223,0.129,0.449,0.258,0.68,0.371
	c0.242,0.117,0.492,0.219,0.742,0.285c1.063,0.277,2.145,0.41,3.113,0.559c0.969,0.148,1.773,0.304,2.344,0.617
	c0.234,0.125,0.445,0.305,0.656,0.512c0.215,0.218,0.418,0.449,0.625,0.66c0.406,0.41,0.895,0.793,1.598,0.789
	c0.387,0.496,0.816,0.957,1.246,1.41c0.453,0.477,0.914,0.945,1.328,1.461c0.82,1.004,1.465,2.156,1.602,3.82
	c0.32,0.512,0.563,0.91,0.824,1.285c0.23,0.325,0.48,0.645,0.785,0.926c-0.09,0.215-0.148,0.449-0.199,0.672
	c-0.063,0.285-0.113,0.582-0.199,0.848l0.023,0.226c0.641,1.11,0.859,2.664,1.047,4.332c0.094,0.832,0.176,1.672,0.297,2.473
	c0.117,0.758,0.273,1.488,0.512,2.144c-0.262,0.469-0.371,1.055-0.422,1.657c-0.055,0.656-0.039,1.379-0.043,2.082
	c-0.004,1.449-0.113,2.57-0.816,3.011l-0.129,0.282c0.211,1.496-0.145,2.898-0.68,4.265c-0.531,1.352-1.219,2.645-1.672,3.903
	c-0.27,0.168-0.512,0.355-0.781,0.519c-0.277,0.168-0.57,0.301-0.941,0.352l-0.266,0.035l0.02,0.266
	c0.074,1.054-0.176,1.781-0.461,2.515c0.035,0.613,0.254,0.934,0.52,1.184c0.129,0.117,0.266,0.222,0.398,0.312l0.297,0.215
	c0.484,1.77,1.301,3.203,2.168,4.547c0.859,0.508,1.535,1.004,2.188,1.539c0.656,0.543,1.281,1.113,1.926,1.664
	c1.293,1.102,2.703,2.141,4.633,2.66c0.293,0.246,0.566,0.512,0.836,0.782c0.289,0.292,0.574,0.589,0.871,0.875
	c0.574,0.55,1.211,1.07,2.031,1.417c0.266,0.852,0.863,1.61,1.52,2.293c0.688,0.715,1.477,1.379,2.113,2.016
	c1.105,1.102,2.262,2.344,3.461,3.586c1.195,1.238,2.434,2.477,3.707,3.586c0.324,0.75,0.691,1.453,1.078,2.141
	c-1.719-2.418-4.039-4.582-8.559-4.036c-5.742,0.7-9.691,5.188-12.438,9.243c-3.32,4.898-6.438,12.8-7.25,19.324
	c0.023,0.18,0.047,0.265,0.078,0.347c-1.547-2.882-1.934-7.199-0.727-10.781l0.086-0.254l-0.25-0.101
	c-2.004-0.797-5.531-1.289-8.082-0.731c-0.914,0.371-1.496,1.004-1.945,1.723c-0.219,0.355-0.414,0.734-0.598,1.125l-0.465,0.996
	c-1.48,0.09-3.094,0.32-4.719,0.445C279.344,93.867,277.68,93.879,276.148,93.527z M278.313,98.859
	c-0.379-0.691-0.738-1.414-1.09-2.152l0.34,0.602C277.852,97.84,278.117,98.352,278.313,98.859z"/>
<path fill="#8A3A2B" d="M283.516,5.25c-0.074,0.645-1.012,0.43-1.199,0.957c-1.738,0.32-3.672-0.59-5.043-0.719
	c-0.543-0.05-1.367,0.785-1.438-0.238C278.398,4.312,281.039,6.074,283.516,5.25"/>
<path fill="#8A3A2B" d="M284.953,6.441c-2.098,2.637-5.734,0.539-9.121,0.481c-0.43,0.066-0.492-0.227-0.242-0.242
	C278.594,5.918,282.059,7.68,284.953,6.441"/>
<path fill="#8A3A2B" d="M289.516,8.359c-1.969,0.461-3.656,1.508-5.762,1.442c-2.711-0.09-5.344-2.106-7.68-1.199
	c-0.039-0.282,0.055-0.43,0.242-0.481c2.738-0.828,5.555,0.832,8.16,0.719C286.031,8.773,287.574,7.816,289.516,8.359"/>
<path fill="#8A3A2B" d="M280.633,10.52c-1.355,1-2.805,0.054-4.082,0.238c-1.848,0.269-2.988,1.988-5.039,1.922
	C272.875,9.969,276.695,10.121,280.633,10.52"/>
<path fill="#8A3A2B" d="M280.875,11.719c0.441,1.035-2.887,0.703-4.559,1.199c-1.484,0.445-2.586,1.289-3.359,1.922
	C273.051,12.215,278.152,12.516,280.875,11.719"/>
<path fill="#8A3A2B" d="M288.074,12.93c-1.48,0.402-2.168,1.445-3.84,1.679c-1.914,0.266-3.91-0.789-5.758-0.48
	c-1.512,0.25-2.168,1.574-3.602,1.437c1.23-0.847,2.609-1.546,3.84-2.398C282.426,13.5,284.73,13.688,288.074,12.93"/>
<path fill-rule="evenodd" clip-rule="evenodd" fill="#8A3A2B" d="M292.395,14.602c0.375,0.855-0.813,0.148-0.719,0.722
	C290.973,15.055,291.98,14.543,292.395,14.602"/>
<path fill="#8A3A2B" d="M288.313,14.84c-1.504,1.547-3.875,1.453-6.723,1.199c0.559-1.051,1.969-0.434,3.121-0.238
	C286.121,15.691,286.48,14.527,288.313,14.84"/>
<path fill="#8A3A2B" d="M291.676,15.559c-1.223,0.859-2.293,1.867-3.359,2.879c-2.055,0.292-2.961-0.559-4.559-0.719
	c1.242-0.676,2.301,0.183,3.359,0C288.84,17.422,289.656,15.688,291.676,15.559"/>
<path fill="#8A3A2B" d="M280.152,17c-0.934,1.148-3.285,0.875-4.563,1.68c-0.578,1.5-2.465,1.695-3.359,2.879
	c-2.34-0.098-3.031-0.036-4.559,0.242c0.738-2.59,4.742-0.457,5.758-2.641c-0.727-0.832-1.727-0.031-2.398,0.481
	c-0.469-1.118,1.453-1.219,2.398-1.68c0.473-0.231,0.941-0.828,1.441-0.961C276.445,16.59,278.387,17.176,280.152,17"/>
<path fill="#8A3A2B" d="M298.633,20.359c1.09,0.028-0.438,0.797,0,1.68c0.988,2.43-0.289,4.449-0.48,6.723
	c-0.516,0.613-1.344-0.203-1.68,0.238c0.098,1.82,1.41,2.605,0.719,4.559c0.176,0.226,0.438,0.363,0.719,0.48
	c0.188-1.449-0.047-3.402,0.961-4.559c-0.023,1.872,0.16,4.954,0.242,6.719c-1.473,0.281-1.188,2.809-1.922,3.121
	c0.73-3.05-2.605-2.035-2.641-4.32c0.754,0.125,1.34,0.422,1.922,0.719c0.656-0.672-1.016-1.051-0.961-1.918
	c0.602,0.031,0.75,0.457,0.961-0.242c-1.156-0.524-2.5-0.86-3.84-1.2c1.082-1.175,3.121,0.457,3.84-0.48
	c-0.965-1.758-4.746-0.695-6-2.16c1.031-0.465,2.637,0.558,4.316,0.242c0.832-0.164-0.277-1.754,1.203-1.68v-1.679
	c0.945-0.309,0.582,0.699,1.199,0.718c1.77-1.562,0.617-3.722,0.719-6.48C298.105,20.633,298.57,20.699,298.633,20.359"/>
<path fill="#8A3A2B" d="M296.473,21.078c0.387-0.066,0.41,0.227,0.719,0.242c-0.234,2.407-0.309,4.969-2.16,5.758
	C294.461,24.953,296.965,23.918,296.473,21.078"/>
<path fill="#8A3A2B" d="M264.313,25.41c0.035,0.676-0.68,0.602-0.961,0.957c0.148,0.953-1.008,1.309-1.441,1.922
	c-0.551,0.781-0.359,2.066-1.438,2.399c0.215-1.528,0.406-1.782,0.238-3.122C262.152,27.09,262.375,25.395,264.313,25.41"/>
<path fill="#8A3A2B" d="M289.754,31.16c-3.051-1.5-7.574-1.738-11.52-1.68c0.543-1.457,2.16-1.101,3.836-0.96
	C284.918,27.359,288.273,29.398,289.754,31.16"/>
<path fill="#8A3A2B" d="M274.152,29c-0.406,0.785-1.789,0.453-2.883,0.719c-1.379,0.336-2.617,1.074-3.598,1.441
	c-1.168,0.074-2.535-0.582-2.879,0.719c-0.715-1.281,1.652-1.539,1.918-2.641C268.867,28.785,271.93,27.969,274.152,29"/>
<path fill-rule="evenodd" clip-rule="evenodd" fill="#8A3A2B" d="M300.313,30.199c0.887,0.348-0.305,2.504-0.242,3.602
	C298.98,33.105,299.805,30.828,300.313,30.199"/>
<path fill="#8A3A2B" d="M274.395,35.719c-1.18-0.059-1.941,0.297-2.16,1.199c-0.477-0.242-0.84-0.598-1.199-0.957
	c-0.164-0.969,1.012-0.59,0.961-1.441c-0.57-0.149-2.508,1.519-3.602,0.238c0.023-0.617,0.938-0.34,0.961-0.957
	c-0.477-0.692-1.59-0.012-1.199,0.957c-0.82-0.098-1.367,0.074-1.199,0.961c-1.941-0.555-0.438-2.856,0.957-2.879
	c-0.176-0.223-0.434-0.363-0.719-0.481c1.422-1.617,4.156,0.133,6-0.48c-0.066-0.387,0.227-0.414,0.238-0.719
	C275.902,31.422,274.191,33.781,274.395,35.719"/>
<path fill-rule="evenodd" clip-rule="evenodd" fill="#8A3A2B" d="M252.074,35.238c-1.597,0.043-3.277-0.867-5.277-0.718
	C248.102,33.906,251.488,33.738,252.074,35.238"/>
<path fill-rule="evenodd" clip-rule="evenodd" fill="#8A3A2B" d="M251.594,36.93c-1.223,0.832-3.723-1.293-6-0.242
	C246.863,35.172,250.371,35.766,251.594,36.93"/>
<path fill="#8A3A2B" d="M300.555,35.719c0.645,0.355,0.609,1.258,0.719,2.64c-0.836,0.602-1.258,1.621-2.398,1.922
	C298.691,38.016,299.996,37.242,300.555,35.719"/>
<path fill="#8A3A2B" d="M296.234,37.879c-0.965,0.797-2.102-0.289-2.398-0.957c-0.547-0.004-2.563-0.481-0.961-0.481
	c0.566-0.007,0.707,0.411,1.441,0.239C294.836,37.199,295.43,37.648,296.234,37.879"/>
<path fill-rule="evenodd" clip-rule="evenodd" fill="#8A3A2B" d="M279.914,37.641c0.313,0.754-1.418,0.187-1.68,0
	C278.133,36.676,279.867,37.242,279.914,37.641"/>
<path fill-rule="evenodd" clip-rule="evenodd" fill="#8A3A2B" d="M280.633,37.879c1.605,0.183,2.578,1.488,4.797,0.723
	C284.535,40.777,281.488,39.152,280.633,37.879"/>
<path fill="#8A3A2B" d="M241.273,40.039c-0.449,1.168,0.352,1.059,0.481,2.16c-0.754-0.273-0.582,0.379-0.957,0.481
	c0.187,0.531,1.484-0.047,1.199,0.961c-1.43,0.41-2.25,1.429-3.601,1.918c0.074-0.559,0.472-0.989,0-1.438
	c-1.032,0.531-1.938-0.223-3.36,0c-0.097-0.578,0.438-0.523,0.238-1.203c-0.589-0.031-1.152-0.035-1.437,0.242
	c-0.297,0.778,0.777,0.184,0.48,0.961c-2.312,1.176-4.402-1.183-6.722,0c0.383-2.508,5.636-3.082,8.64-2.402
	c0.227-0.176,0.364-0.434,0.481-0.719c-2.453-0.309-4.348-1.293-6.481-0.719c-1.64,0.442-2.879,2.703-4.8,1.68
	c0.843-1.559,2.648-2.156,3.601-3.602c3.934-0.41,6.512,0.528,9.602,0.961c0.508,0.368,0.894,0.864,1.437,1.2
	C240.812,40.699,240.535,39.859,241.273,40.039"/>
<path fill-rule="evenodd" clip-rule="evenodd" fill="#8A3A2B" d="M280.633,39.559c-0.727-0.317-1.918-0.164-2.641-0.481
	C278.488,38.25,280.465,38.637,280.633,39.559"/>
<path fill="#8A3A2B" d="M211.035,40.52c1.5,0.339,2.137,1.542,2.641,2.878c-0.289,0.274-0.434,0.688-1.199,0.481
	c0.156-0.875-0.165-1.277-0.481-1.68c-0.566,0.074-0.445,0.836-1.199,0.719C210.859,42.105,210.609,40.973,211.035,40.52"/>
<path fill="#8A3A2B" d="M279.434,41.48c1.594,0.766,2.906,0.563,4.32,1.68c-1.148,1.18,0.539,0.86,0.723,1.918
	c-0.68,0.043-1,0.442-1.68,0.481c-0.137,1.175,1.504,0.574,2.398,0.722c-0.887,1.352-4.41,0.067-5.281,1.438h-1.438
	c-0.199-0.676,0.336-0.621,0.238-1.199c-1.684-0.305-1.973,1.449-3.359,0.718c-0.039-0.597,0.375-0.742,0.48-1.199
	c-0.93-0.508-2.508-0.371-2.641-1.68c2.355,1.137,5.66-0.148,8.16,0.719c0.766-0.328,1.184-1.269,0.719-2.16
	c-1.172,0.394-2.02-0.18-3.117-0.48C278.781,41.785,279.434,41.957,279.434,41.48"/>
<path fill="#8A3A2B" d="M268.633,46.039c1.566-0.91,2.039-2.918,3.598-3.84c0.914-0.191,0.305,1.137,0.48,1.68
	C271.156,44.402,271.164,46.492,268.633,46.039"/>
<path fill-rule="evenodd" clip-rule="evenodd" fill="#8A3A2B" d="M277.754,42.93c0.633,0.711-1.184,1.621-1.922,0.957
	C276.578,43.676,277.016,43.152,277.754,42.93"/>
<path fill="#8A3A2B" d="M296.473,44.121c0.531,0.098,0.188,1.27,0,1.438h-0.961C295.445,44.695,296.461,44.91,296.473,44.121"/>
<path fill-rule="evenodd" clip-rule="evenodd" fill="#8A3A2B" d="M242.234,44.84c-0.453,1.144-2.16,1.039-2.879,1.918
	C239.047,45.961,241.539,44.633,242.234,44.84"/>
<path fill="#8A3A2B" d="M213.676,44.84c0.816,0.14,1.297,0.621,1.441,1.441c0.063,0.781-0.933,0.508-0.961,1.199
	c0.028,1.551,1.406,2.555,0.961,3.84c-0.433-0.031-0.508,0.293-0.961,0.239c-0.426-0.454-0.176-1.586-0.238-2.399
	c-0.102-0.539-1.277-0.008-1.441-0.48c-0.516-0.766-0.528-2.032-0.481-3.36C212.883,45.164,213.648,46.066,213.676,44.84"/>
<path fill-rule="evenodd" clip-rule="evenodd" fill="#8A3A2B" d="M236.234,45.32c-1.546,1.149-3.226,0.715-5.039,0.719
	C231.418,44.461,234.977,45.078,236.234,45.32"/>
<path fill-rule="evenodd" clip-rule="evenodd" fill="#8A3A2B" d="M242.953,46.77c-0.726,0.636-1.933,0.785-2.883,1.199
	C240.633,47.168,241.434,46.613,242.953,46.77"/>
<path fill-rule="evenodd" clip-rule="evenodd" fill="#8A3A2B" d="M246.312,48.93c0.598,0.121,0.801,0.636,1.438,0.718
	C247.398,50.699,246.18,49.805,246.312,48.93"/>
<path fill="#8A3A2B" d="M270.074,49.16c0.48,0.32,1.145,0.457,1.684,0.719c1.262-0.031,2.445-0.461,3.598-0.481
	c0.582-0.007,0.855,0.414,1.441,0.481c1.344,0.148,2.316-0.008,3.598,0.242c2.086,0.406,4.238-0.445,6.723,0.238
	c-0.055,1.067-1.559,0.684-1.684,1.68c-2.676,0.199-3.41,2.352-5.52,3.121c-1.086-0.09-1.871-0.402-2.641,0.238
	c-0.645-0.472-1.414-0.82-1.68-1.679c1.809-1.258,6.691,0.875,8.164-2.16c-1.574-0.02-4.344-0.903-6,0
	c-2.211-1.032-5.699-0.204-8.402-0.239C269.43,50.43,270.414,50.457,270.074,49.16"/>
<path fill="#8A3A2B" d="M239.355,50.121c-0.941,0.844-2.023,3.606,0,4.078c1.633-0.152,2.907-1.14,4.321-0.238
	c-2.219,0.816-4.84,1.84-6.719,0c-1.535,0.707-2.746,1.734-4.32,2.398c0.32-0.961,1.293-1.265,1.437-2.398
	c1.473-0.18,2.703-1.438,2.403-2.641C237.969,51.453,237.488,49.609,239.355,50.121"/>
<path fill="#8A3A2B" d="M248.234,53.238c0.215,0.11,0.43,0.211,0.481,0.481c-0.344,1.176-1.735,1.308-1.918,2.64
	c-1.137-0.175-1.652,0.27-2.641,0.239c-0.41,0.711-0.051,2.191-1.441,1.922c-0.281-0.676-0.047-1.02,0.242-1.68
	c-0.211-0.762-0.965-0.813-1.684-0.481c0.266-1.129,1.25-0.664,2.641-1.199c1.348-0.515,1.398-1.176,3.602-0.722
	C247.938,54.219,248.348,53.992,248.234,53.238"/>
<path fill-rule="evenodd" clip-rule="evenodd" fill="#8A3A2B" d="M248.473,55.641c0.757,0.328,0.8,0.05,1.679,0
	C250.43,56.668,248.191,56.668,248.473,55.641"/>
<path fill-rule="evenodd" clip-rule="evenodd" fill="#8A3A2B" d="M217.035,56.121c1.203-0.953,1.836,0.715,2.879,0.719
	C219.129,57.375,217.938,56.266,217.035,56.121"/>
<path fill-rule="evenodd" clip-rule="evenodd" fill="#8A3A2B" d="M217.516,57.801c1.039,0.238,2.433,0.125,2.64,1.199
	C219.043,58.832,217.5,59.098,217.516,57.801"/>
<path fill-rule="evenodd" clip-rule="evenodd" fill="#8A3A2B" d="M278.953,59.719c-0.98-0.278-2.871-0.18-3.363-0.239
	C275.93,58.121,278.418,59.086,278.953,59.719"/>
<path fill="#8A3A2B" d="M234.312,59.238c2.329,0.727,5.606,1.407,7.918,0c0.262,0.731,1.883,1.004,2.641,0.481
	c1.141,0.679,2.547,1.777,3.602,1.199c0.168,0.891-0.844,0.598-1.203,0.961c-0.754,0.117-0.938-0.34-1.438-0.481
	c-3.906-0.21-7.543-0.007-11.039-0.96c-1.102-0.059-0.996,1.089-2.16,0.96C233.32,60.809,234.18,60.387,234.312,59.238"/>
<path fill="#8A3A2B" d="M222.555,62.121c-1.774-0.387-2.965-1.355-4.801-1.683c0.566-1.079,2.223,0.425,2.883,0.722
	C221.289,61.453,222.832,61.188,222.555,62.121"/>
<path fill-rule="evenodd" clip-rule="evenodd" fill="#8A3A2B" d="M279.676,60.922h-3.359
	C276.465,59.387,279.355,59.895,279.676,60.922"/>
<path fill-rule="evenodd" clip-rule="evenodd" fill="#8A3A2B" d="M239.113,62.359c-0.504,0.102-0.636-0.164-0.961-0.238
	C238.195,61.422,239.293,61.543,239.113,62.359"/>
<path fill-rule="evenodd" clip-rule="evenodd" fill="#8A3A2B" d="M218.473,62.121c1.136,0.141,1.89,0.668,2.879,0.957
	C220.551,63.551,218.219,63.5,218.473,62.121"/>
<path fill="#8A3A2B" d="M246.312,62.84c-0.867,0.898-1.441,1.808-1.199,2.64c-1.265-1.156-2.929-0.726-5.043-0.722
	c0.028-0.613,0.805-0.473,1.442-0.477c0.031-0.914-1.086-0.676-1.2-1.441C242.191,63.918,244.949,62.789,246.312,62.84"/>
<path fill="#8A3A2B" d="M294.313,15.078c0.422,0.285-0.563,1.184-0.723,1.68c-0.043,0.844,0.813,0.793,0.961,1.441
	c-0.648,1.227-1.355,3.551-0.961,5.039c1.688-0.636,1.445-3.195,2.402-4.558c1.152,1.215-0.539,2.629-0.961,3.84
	c-0.492,1.418-0.367,2.886-0.48,4.558c-1.16-0.035-0.34-1.336-0.719-1.68c-0.469-0.57-1.152-0.925-1.441-1.679
	c-1.82,0.144-3.266-0.094-4.32-0.719c-0.316,0.031-1.734,0.035-0.957-0.242c2.094,0.191,3.133,0.105,5.277,0
	c-0.402-1.196-2.066-1.129-3.121-1.68c0.617-0.789,2.211,0.328,2.641-0.238c-0.703-1.832-2.961-0.668-4.559-0.719
	c-1.137-0.039-5.336-0.504-5.281-1.683c2.027,0.16,4.211,1.472,6.723,0.96C291.277,18.895,292.609,16.082,294.313,15.078"/>
<path fill-rule="evenodd" clip-rule="evenodd" fill="#8A3A2B" d="M286.156,35.242c0.051,0.399,1.781,0.961,1.68,0
	C287.637,34.988,286.098,34.23,286.156,35.242 M282.074,34.281c0.02,0.793,1.516,1.348,2.16,0.719
	c-1.066-0.367-0.215-1.633,0.48-1.68C283.152,32.957,283.48,34.484,282.074,34.281z M283.273,30.441
	c-0.195,0.676,0.34,0.621,0.242,1.2c-0.602,0.195-1.117,0.484-1.441,0.961c1.652-0.438,5.027-0.192,6.242,1.199
	c2.219,0.23,4.051-0.512,5.52,0.238c0.25,0.844-0.809,0.199-0.961,0c-0.809,0.633-2.121,0.758-2.398,1.922
	c-3.063,0.578-5.113,0-8.402-0.242c-0.316,2.578,4.492-0.446,5.043,1.683c-3.918,0.821-5.648-0.359-8.402-1.203
	c-0.23-0.871,1.078-0.199,0.961-0.957c-0.363-0.359-1.055-0.39-1.68-0.48c-0.059-1.098,1.582-0.496,1.68-1.442
	c-0.219-0.91-0.965-0.175-1.68-0.238c0.023-0.617,0.938-0.344,0.961-0.961c0.043-1.094-1.563-1.789-2.16-1.441
	C277.082,29.824,281.047,31.188,283.273,30.441z"/>
<path fill="#8A3A2B" d="M241.273,48.199h1.684c-0.437,0.446-1.449,0.313-1.922,0.719C240.219,48.664,241.703,48.844,241.273,48.199"
	/>
<path fill-rule="evenodd" clip-rule="evenodd" fill="#8A3A2B" d="M227.598,95.961c0.449,2.043,0.988,3.926,0.718,6.477h1.68
	c0.289-2.75,0.824-5.254,1.918-7.2c0.895-0.336,1.93-0.957,3.121-1.199c0.59-0.117,1.715,0.488,1.922-0.48
	c-2.211-0.129-3.531,0.632-5.281,0.961c-0.481-2.321-1.332-4.266-2.879-5.52C226.961,91.48,226.922,92.906,227.598,95.961
	 M237.676,94.039c1.629,2.289,2.418,5.422,4.558,7.199c1.403-5.777-0.429-12.07-3.839-15.117
	C237.918,88.77,237.73,91.562,237.676,94.039z M281.117,81.074c-0.375,0.43-0.66,0.942-0.961,1.442
	c-0.742-2.375-0.852-5.387-1.922-7.438c-0.367,0.992-1.391,1.324-1.68,2.399c1.152,3.011,1.57,6.75,2.883,9.597
	C279.785,85.355,281.453,82.059,281.117,81.074z M269.117,81.555c0.922-1.633,1.426-3.692,2.879-4.797
	c1.25-0.504,2.941,0.133,3.84-0.242c-0.895-1.028-3.449-0.098-4.078-0.239c-0.25-1.351-0.246-2.957-0.961-3.836
	c-1.492,2.004-4.105,6.141-1.68,9.118V81.555z M235.754,82.516c2.402,1.101,3.469,3.609,4.801,5.761
	c0.968,1.567,1.859,3.325,3.121,4.559c-0.403-5.777,2.058-11.895,1.441-17.277c-0.094-0.805-0.664-3.227-1.203-3.36
	C242.824,77.27,238.488,79.094,235.754,82.516z M242.234,73.398c-0.019,0.375-0.609,0.188-0.48,0.719
	c0.746,0.625,1.351-0.426,1.441-1.199c-1.98-0.762-5.257-1.309-6.961-0.961C237.363,73.312,240.324,72.828,242.234,73.398z
	 M209.836,79.637c-1.5-3.442-2.516-6.414-5.039-8.16c-2.301,0.82-3.871,2.367-6,3.359c6.363,4.598,9.039,12.887,10.078,22.805
	c2.273-0.391,4.762,0.121,6.48,0c-1.109-6.567-3.261-12.821-5.519-18V79.637z M250.395,95.238c2.109,0.153,4.05-1.019,6-0.238
	c-0.344-10.535,1.238-23-8.878-23.762C250.504,77.082,250.461,87.133,250.395,95.238z M256.637,69.082
	c0.059,1.938-0.18,4.176,0.238,5.758c2.32,0.64,3.813,2.105,6.242,2.64c-1.082-3.234-1.387-8.273-1.203-12
	C260.227,66.75,258.676,68.16,256.637,69.082z M210.078,66.922c-0.191,2.383,2.266,5.031,3.598,7.199
	c0.758,1.234,1.187,2.543,1.922,3.598c3.855,5.566,7.777,12.082,9.84,17.761c1.515-5.281,4.292-9.308,7.679-12.718
	c-10.031-3.41-17.058-9.824-20.64-19.68c0.289-0.141,0.488-1.555,0.238-1.441C212.531,63.75,210.234,64.895,210.078,66.922z
	 M273.438,66.199c-0.23-0.347-1.09-1.285-0.723-1.437c1.809,0.195,2.961,2.316,5.043,1.437c-1.602-0.64-3.094-1.387-4.082-2.64
	c0.598,0.027,0.742,0.453,1.199,0c-1.023-1.141,1.488-0.918,0.48-1.918c-2.164,0.961-4.684-1.071-6-0.961
	C270.414,62.664,271.387,66.008,273.438,66.199z M310.156,60.199c-1.699-0.39-4.176,0.617-5.039,1.203
	c-1.582,1.063-3.359,3.696-4.801,5.758c-4.25,6.078-8.398,15.211-10.559,21.84c2.23-0.07,4.02,0.297,5.996,0.48
	c1.68-5.304,3.695-9.418,6.242-14.398c2.566-5.023,4.863-9.828,9.359-11.762h1.918C313.273,62.445,311.09,60.418,310.156,60.199z
	 M268.156,60.199c-3.066,4.012-0.301,11.278-0.48,16.801c1.582-3.859,4.066-6.812,6.961-9.359c-3.352-1.051-4.789-4.012-5.762-7.442
	H268.156z M293.117,58.52c-2.09,2.316-4.785,4.773-6.961,6.242c-2.711,1.824-5.359,3.34-9.359,3.359
	c1.508,2.969,2.797,8.242,3.359,12.957c2.008-1.808,3.332-4.191,5.039-6.238c5.52-6.617,12.594-12.781,15.84-21.36
	c-0.691-0.988-1.207-2.152-1.918-3.121C297.891,53.227,295.645,55.719,293.117,58.52z M248.477,42.441
	c0.027,0.289,0.07,0.567,0.48,0.481c1.508,0.492,2.27,1.726,3.598,2.398c0.172-0.711,0.715-1.043,0.48-2.16
	C252.172,42.379,249.926,41.855,248.477,42.441z M229.035,70.52c-2.246-0.958-5.351-2.329-6.238-3.84
	c2.84,2.039,8.297,1.465,11.039,3.601c-0.676-0.039-0.602,0.676-0.961,0.957c1.09-0.191,2.238-0.324,2.398-1.437
	c-0.527-0.274-1.32-0.278-1.437-0.961c1.519-0.238,1.672,0.89,2.879,0.961c0.555,0.074,0.265-0.696,0.723-0.719
	c0.605,0.352,1.07,0.848,1.917,0.957c2.012-0.301,3.481-0.266,5.04,0.242c1.316-0.445,2.41-1.113,3.121-2.16
	c-0.118-3.465,3.773-4.82,3.359-9.359c0.844-1.074,0.512-2.375,0.723-3.84c0.371-2.633,2.351-5.594,0.48-8.641
	c-1.172,0.133-1.629-0.457-2.402-0.722c0.004-0.477,0.656-0.305,0.48-0.957c-1.359-0.004-1.066,1.652-2.883,1.199
	c-0.226-0.449,0.723-0.801,0-0.961c-0.164,1.008-1.089-0.231-1.195,0.719c0.758,1.32,4.387-0.227,4.317,1.921
	c-1.243,0.645-1.665-0.855-3.36-0.48c-0.57,0.258,0.516,1.105-0.238,1.441c-0.602,0.039-0.75-0.371-0.961-0.722
	c-0.227-2.571-1.363-4.235-1.68-6.719c2.828-0.562,4.489-1.254,7.68-0.48c0.785-0.958,0.512-2.918,0.48-4.079
	c0.422-0.886,1.196-3.058,0.239-3.839c-1.137,1.66-2.996,0.132-4.559,0c-1.242-0.106-2.273,0.773-3.359,0
	c2.933-1.133,5.254-0.063,8.16-0.243V31.16c-1.875,0.52-3.52-0.633-5.524-0.719c-3.445,2.715-8.48-0.363-12,0.239v-0.961
	c-1.164-0.114-2.14-0.414-3.117-0.719c0.446-0.031,0.801-0.156,0.961-0.48c-2.133-0.563-3.492-2.993-6-2.399
	c-0.027-0.293-0.074-0.57-0.48-0.48c-1.289,1.191-3.953,1.007-4.559,2.879c0.422,0.14,1.41-0.29,1.438,0.242
	c-0.223,0.254-0.887,0.074-0.719,0.718c0.359,0.04,0.883-0.085,0.961,0.239c-0.028,0.617-0.938,0.343-0.961,0.961
	c0.68,0.043,1.644-0.207,1.68,0.48c0.093,0.574-1.094-0.133-0.719,0.719c0.414,0.465,1.664,0.094,1.68,0.961
	c-0.586,0.375-1.426,0.496-1.922,0.961c-0.18,0.738,0.66,0.461,0.48,1.199c-0.867,0.012-1.16,0.598-1.918,0.719
	c-2.676,3.246-1.844,10-3.601,14.16c-1.747,0.293-2.02-0.043-2.641-1.199c1.019-1.27,0.223-3.563,0-5.039
	c-1.879-1.282-2.633-5.571-5.758-4.082c-0.125,3.472-0.578,8.738,1.68,10.562v1.68c1.07,1.789,2.711,2.953,4.078,3.836
	c0.254,0.25,0.496,1.715,0,1.922c-0.691-0.426-0.305-1.934-1.68-1.684c0.219,3.211,0.106,5.582-0.48,8.402
	c3.027,7.453,8.14,12.817,15.359,16.078c0.094-0.89-0.973-0.625-0.719-1.679c0.098-0.781,1.141-0.617,1.68-0.961
	c-1.082-0.891-0.66-1.86-0.961-3.36c0.445-0.031,0.805-0.156,0.961-0.48c-0.242-0.477-0.891-0.547-1.199-0.957
	c0.058-0.426,0.41-0.551,0.957-0.48c0.027-1.067-1.246-0.836-1.438-1.68c0.239,0,0.286-0.196,0.481-0.242
	c-0.02,0.375,0.695,0.164,0.238,0V70.52z M248.477,26.121c1.421-0.066,1.375,1.344,2.398,1.68c0.656-1.086-1.207-1.434-1.199-2.641
	c1.215-0.098,1.312,0.93,1.922,1.442c0.023-0.454,0.793-0.168,0.718-0.723c-0.804,0.008-0.648-0.949-0.961-1.438
	c-1.289,0.168-1.964-0.273-2.878-0.48C248.73,24.961,248.539,25.02,248.477,26.121z M245.117,23c0.348,0.453,1.571,0.031,1.918,0.48
	c-0.277-1.082-0.945-1.777-1.68-2.398C245.734,22.203,245.156,21.879,245.117,23z M245.598,20.359
	c1.347,0.801,1.941-0.402,2.398-1.199c-1.25-0.269-2.457-0.582-3.359-1.199C244.695,19.02,245.52,19.316,245.598,20.359z
	 M288.316,6.199c-2.75-2.094-7.707-0.637-11.043-1.918c-3.035,1.414-5.461,1.985-8.398,3.36v1.441
	c-1.824,0.813-3.785,1.492-4.559,3.359c0.918,2.36-2.16,2.797-2.879,4.321c-0.211,0.926,1.047,0.39,0.719,1.437
	c-3.145,1.531-4.008,4.082-3.84,8.641c0.523,0.437,1.211,0.711,1.441,1.441c-0.699,1.805,0.219,3.246,1.438,3.84
	c0.07,3.527,1.492,5.707,3.121,7.68c-3.664,1.441-1.109,7.918,0.48,9.84c-0.727,0.394-0.383,1.855-0.961,2.398
	c1.625,2.856,2.445,6.516,6.719,6.723c0.805,1.117,2.117,1.722,3.121,2.64c0.617,0.559,1.664-0.523,2.16-0.48
	c0.035,0,0.613,0.672,0.719,0.719c2.496,1.109,6.328-0.766,7.68-1.442c0.844-0.418,1.77-0.586,2.641-0.957
	c4.074-1.742,6.508-3.422,8.641-5.281c0.395-0.965,0.406-2.313,1.199-2.879c0.141,0.777-0.164,1.113-0.238,1.68
	c1.684-0.95,2.426-3.133,1.438-5.043c0.91-0.93,0.09-3.59,0.723-4.797c0.754-0.117,0.543,0.734,1.438,0.48
	c0.613-0.668,0.828-1.734,0.723-3.121c1.777-0.222,1.711-2.289,2.16-3.84c-0.703-0.062-0.738,0.543-1.441,0.481
	c0.055-1.016-0.371-1.551-0.48-2.402c3.559-0.86,2.664-7.844,2.16-10.079c-0.188,0.532-0.137,1.301-0.719,1.438
	c-0.383-1.652,0.008-2.324,0.719-3.359c-0.281-0.04-0.68,0.042-0.719-0.239c-0.988-0.027-0.32,1.602-1.203,1.68
	c-0.195-2.512,2.121-6.637-0.719-8.16c-0.332,0.387-0.203,1.238-0.719,1.441c0.004-2.476-0.492-3.609-0.238-5.281
	c-0.578,0.098-0.523-0.438-1.203-0.242c-0.465-1.934-3.477-1.321-4.078-3.117c-0.023,0.609-0.938,0.609-0.961,0
	c-0.117-0.758,1.102-0.18,1.199-0.723C292.309,7.488,290.98,6.176,288.316,6.199z M279.914,3.801h1.441
	c0.961,1.144,2.836,0.308,4.801,0.719c0.84,0.175,1.699,0.953,2.641,1.199c2.102,0.554,4.273,0.527,5.52,1.203
	c1.078,0.582,1.555,2.039,2.879,1.918c1.613,2.148,4.039,3.484,4.32,6.961c0.539,0.742,0.973,1.59,1.68,2.16
	c-0.266,0.453-0.305,1.133-0.48,1.68c1.348,2.336,0.898,6.464,1.922,9.121c-1.109,1.691,0.277,5.875-1.441,6.957
	c0.441,3.133-1.5,5.824-2.398,8.402c-0.605,0.352-1.074,0.848-1.922,0.961c0.078,1.117-0.188,1.891-0.48,2.637
	c0.09,0.793,0.711,1.054,1.203,1.441c0.465,1.774,1.277,3.199,2.156,4.559c3.109,1.695,4.84,4.765,8.641,5.761
	c1.273,1.051,2.172,2.469,3.84,3.122c0.445,1.668,2.328,3.043,3.602,4.32c2.207,2.203,4.629,4.969,7.199,7.199
	c1.48,3.477,3.984,5.938,4.563,10.32c-0.91-2.156-1.656-4.32-2.883-6.242c-1.875-2.933-4.027-6.168-9.359-5.519
	c-5.609,0.683-9.496,5.074-12.238,9.121c-3.297,4.859-6.395,12.719-7.203,19.199c0.273,1.25,1.918,2.398,1.922,3.121
	c-3.441-2.109-4.816-8.656-3.121-13.683c-1.957-0.778-5.43-1.262-7.918-0.719c-1.586,0.656-2.156,2.328-2.883,3.84
	c-3.047,0.168-6.688,0.972-9.84,0.242c0.793,2.261,2.852,4.488,2.883,6.719c-1.887-2.938-3.215-6.641-5.043-10.082
	c-1.676-3.153-3.617-6.825-5.758-9.118c-1.035-1.109-3.492-3.328-5.52-2.879c-2.273,0.504-2.914,6.27-3.121,9.118
	c-0.316,4.336-0.008,12.105,1.199,14.879c0.59,1.347,1.781,1.902,2.883,2.64c-0.016,2.016,0.512,3.492,0.719,5.281
	c-1.535-1.312-0.684-3.297-1.441-4.8c-0.563-1.114-1.813-1.247-2.641-2.157c-1.84-2.043-2.09-4.593-2.879-7.683
	c-2.743-0.707-5.309-0.078-7.917,0.48c-1.223,2.871-2.321,5.047-6.481,5.762c-3.754,0.641-9.957,0.996-15.121,1.199
	c-4.066,0.16-7.469,0.055-9.84-1.441c-0.316-0.961-0.476-2.086-0.961-2.879c-2.336-1.07-6.012-1.16-8.879-0.481
	c-0.492,5.746-1.918,10.559-5.761,12.961c-0.797,1.68-0.321,4.637-1.68,5.758c0.66-1.598,0.281-4.242,0.961-5.758
	c0.476-1.058,1.894-1.5,2.402-2.64c0.258-0.582,0.25-1.723,0.477-2.641c2.402-9.668-1.43-20.719-6.957-25.199
	c-1.235-0.996-2.868-2.203-4.082-2.16c-1.668,0.062-3.043,1.976-4.801,3.359c-0.598,0.473-1.688,0.813-2.16,1.199
	c-2.328,1.926-2.883,4.723-4.797,6.481c1.844-4.551,5.027-7.77,9.117-10.078c0.262-0.539,0.398-1.203,0.723-1.68
	c2.3-1.457,6.203-1.316,7.199-4.082c2.816-0.301,3.539-2.699,6.238-3.117c1.172-0.594,1.875-1.649,3.121-2.16
	c0.793-2.649,3.125-3.758,3.602-6.723c0.047-1.07,1.746-0.488,1.918-1.438c0.277-1.765-0.735-3.761-0.961-5.761
	c-0.32-0.715-1.235-1.235-1.68-2.16c-0.262-0.547-0.211-1.348-0.48-2.161c-0.5-1.519-1.602-3.183-1.68-4.32
	c-0.043-0.644,0.445-1.363,0.48-2.16c0.04-0.879-0.488-1.828-0.48-2.637c0.008-0.551,0.395-1.047,0.48-1.683
	c0.481-3.454-0.769-7.399-0.48-10.317c0.059-0.594,0.563-0.98,0.723-1.683c0.367-1.645-0.508-4.582,1.199-5.039
	c0.765-0.204,2-2.961,2.16-4.079c1.551-0.07,1.566-1.886,2.641-2.882c0.023-0.02,2.625-1.579,2.879-1.68
	c0.859-0.336,1.98-0.199,3.121-0.477c1.843-0.453,3.464-1.558,4.558-1.683c1.09-0.125,2.297,0.386,3.84,0.48
	c2.176,0.137,4.633-0.277,6.481,0c0.511,0.078,1.043,0.571,1.679,0.723c1.176,0.277,2.61-0.027,3.36,0.238
	c1.164,0.414,2.164,1.863,3.121,2.641c1.187,0.965,2.175,1.726,3.359,2.16c1.473,2.449,2.258,5.582,4.559,7.199
	c-0.262,2.606,3.996,3.879,1.199,7.199c0.141,3.707-1.793,7.512,0,10.082c-0.254,1.121-0.66,2.133-0.719,3.36
	c-0.074,1.652,0.539,3.347,0.481,5.039c-0.078,2.219-1.668,4.976-2.161,7.68c-0.191,1.05,0.012,2.234-0.238,3.121
	c-0.246,0.859-1.215,1.886-1.679,2.879c-1.071,2.269-1.446,4.289-3.122,5.761c2.125,0.512,4.129,1.149,6,1.918
	c1.137,0.348,1.653-1.812,3.123-1.918c0.351-0.847,0.944-1.457,1.437-2.16c2.094-0.387,3.148-1.812,4.32-3.121
	c0.551-0.25,1.449-0.152,1.922-0.48c1.328-1.868,2.988-3.411,4.797-4.801c-1.699-2.016-3.414-3.16-4.078-6.239
	c-0.137-0.625-0.848-1.226-0.961-1.679c-0.375-1.504-0.496-3.59-0.719-5.039c-0.184-1.196-0.176-2.785-0.242-4.082
	c-0.125-2.465,0.477-4.578-1.199-6c0.219-3.578-1.852-4.868-1.918-8.16c-0.07-0.731-0.914-0.688-1.199-1.2
	c-0.129-4.289,0.715-7.605,3.117-9.359v-1.922c1.293-0.707,1.57-2.43,3.121-2.879c-0.594-2.664,2.813-3.215,3.359-5.519
	c2.324-0.653,3.926-2.5,6.242-3.121C275.324,4.012,277.555,4.508,279.914,3.801z"/>
</svg>
